<?xml version="1.0" encoding="utf-8"?>
<xmeml version="4">
  <!-- Exported by Descript -->
  <sequence id="superman-composition">
    <duration>5497</duration>
    <name>superman-composition</name>
    <width>854</width>
    <height>480</height>
    <rate>
      <timebase>30</timebase>
      <ntsc>FALSE</ntsc>
    </rate>
    <media>
      <video>
        <format>
          <samplecharacteristics>
            <pixelaspectratio>square</pixelaspectratio>
            <anamorphic>FALSE</anamorphic>
            <fielddominance>none</fielddominance>
            <colordepth>24</colordepth>
            <width>854</width>
            <height>480</height>
            <rate>
              <timebase>30</timebase>
              <ntsc>FALSE</ntsc>
            </rate>
          </samplecharacteristics>
        </format>
        <track>
          <clipitem id="clipitem-1">
            <name>superman-composition.mp4</name>
            <enabled>TRUE</enabled>
            <duration>24</duration>
            <start>0</start>
            <end>24</end>
            <in>0</in>
            <out>24</out>
            <file id="file-1">
              <name>superman-composition.mp4</name>
              <pathurl>superman-composition.mp4</pathurl>
              <duration>8201</duration>
              <width>854</width>
              <height>480</height>
              <rate>
                <timebase>30</timebase>
                <ntsc>FALSE</ntsc>
              </rate>
              <media>
                <video>
                  <samplecharacteristics>
                    <width>854</width>
                    <height>480</height>
                    <rate>
                      <timebase>30</timebase>
                      <ntsc>FALSE</ntsc>
                    </rate>
                    <anamorphic>FALSE</anamorphic>
                    <pixelaspectratio>square</pixelaspectratio>
                    <fielddominance>none</fielddominance>
                  </samplecharacteristics>
                </video>
                <audio>
                  <samplecharacteristics>
                    <depth>16</depth>
                    <samplerate>48000</samplerate>
                  </samplecharacteristics>
                  <channelcount>2</channelcount>
                </audio>
              </media>
            </file>
            <link>
              <linkclipref>clipitem-1</linkclipref>
              <mediatype>video</mediatype>
              <trackindex>1</trackindex>
              <clipindex>1</clipindex>
            </link>
            <link>
              <linkclipref>clipitem-2</linkclipref>
              <mediatype>audio</mediatype>
              <trackindex>1</trackindex>
              <clipindex>1</clipindex>
              <groupindex>1</groupindex>
            </link>
          </clipitem>
          <clipitem id="clipitem-3">
            <name>superman-composition.mp4</name>
            <enabled>TRUE</enabled>
            <duration>66</duration>
            <start>24</start>
            <end>90</end>
            <in>600</in>
            <out>666</out>
            <file id="file-1"/>
            <link>
              <linkclipref>clipitem-3</linkclipref>
              <mediatype>video</mediatype>
              <trackindex>1</trackindex>
              <clipindex>2</clipindex>
            </link>
            <link>
              <linkclipref>clipitem-4</linkclipref>
              <mediatype>audio</mediatype>
              <trackindex>1</trackindex>
              <clipindex>2</clipindex>
              <groupindex>1</groupindex>
            </link>
          </clipitem>
          <clipitem id="clipitem-5">
            <name>superman-composition.mp4</name>
            <enabled>TRUE</enabled>
            <duration>54</duration>
            <start>90</start>
            <end>145</end>
            <in>666</in>
            <out>721</out>
            <file id="file-1"/>
            <link>
              <linkclipref>clipitem-5</linkclipref>
              <mediatype>video</mediatype>
              <trackindex>1</trackindex>
              <clipindex>3</clipindex>
            </link>
            <link>
              <linkclipref>clipitem-6</linkclipref>
              <mediatype>audio</mediatype>
              <trackindex>1</trackindex>
              <clipindex>3</clipindex>
              <groupindex>1</groupindex>
            </link>
          </clipitem>
          <clipitem id="clipitem-7">
            <name>superman-composition.mp4</name>
            <enabled>TRUE</enabled>
            <duration>68</duration>
            <start>145</start>
            <end>213</end>
            <in>2327</in>
            <out>2395</out>
            <file id="file-1"/>
            <link>
              <linkclipref>clipitem-7</linkclipref>
              <mediatype>video</mediatype>
              <trackindex>1</trackindex>
              <clipindex>4</clipindex>
            </link>
            <link>
              <linkclipref>clipitem-8</linkclipref>
              <mediatype>audio</mediatype>
              <trackindex>1</trackindex>
              <clipindex>4</clipindex>
              <groupindex>1</groupindex>
            </link>
          </clipitem>
          <clipitem id="clipitem-9">
            <name>superman-composition.mp4</name>
            <enabled>TRUE</enabled>
            <duration>143</duration>
            <start>213</start>
            <end>357</end>
            <in>2917</in>
            <out>3061</out>
            <file id="file-1"/>
            <link>
              <linkclipref>clipitem-9</linkclipref>
              <mediatype>video</mediatype>
              <trackindex>1</trackindex>
              <clipindex>5</clipindex>
            </link>
            <link>
              <linkclipref>clipitem-10</linkclipref>
              <mediatype>audio</mediatype>
              <trackindex>1</trackindex>
              <clipindex>5</clipindex>
              <groupindex>1</groupindex>
            </link>
          </clipitem>
          <clipitem id="clipitem-11">
            <name>superman-composition.mp4</name>
            <enabled>TRUE</enabled>
            <duration>5140</duration>
            <start>357</start>
            <end>5497</end>
            <in>3061</in>
            <out>8201</out>
            <file id="file-1"/>
            <link>
              <linkclipref>clipitem-11</linkclipref>
              <mediatype>video</mediatype>
              <trackindex>1</trackindex>
              <clipindex>6</clipindex>
            </link>
            <link>
              <linkclipref>clipitem-12</linkclipref>
              <mediatype>audio</mediatype>
              <trackindex>1</trackindex>
              <clipindex>6</clipindex>
              <groupindex>1</groupindex>
            </link>
          </clipitem>
        </track>
      </video>
      <audio>
        <numOutputChannels>2</numOutputChannels>
        <format>
          <samplecharacteristics>
            <depth>16</depth>
            <samplerate>48000</samplerate>
          </samplecharacteristics>
        </format>
        <outputs>
          <group>
            <index>1</index>
            <numchannels>1</numchannels>
            <downmix>0</downmix>
            <channel>
              <index>1</index>
            </channel>
          </group>
          <group>
            <index>2</index>
            <numchannels>1</numchannels>
            <downmix>0</downmix>
            <channel>
              <index>2</index>
            </channel>
          </group>
        </outputs>
        <track>
          <clipitem id="clipitem-2">
            <name>superman-composition.mp4</name>
            <enabled>TRUE</enabled>
            <duration>24</duration>
            <start>0</start>
            <end>24</end>
            <in>0</in>
            <out>24</out>
            <file id="file-1"/>
            <link>
              <linkclipref>clipitem-1</linkclipref>
              <mediatype>video</mediatype>
              <trackindex>1</trackindex>
              <clipindex>1</clipindex>
            </link>
            <link>
              <linkclipref>clipitem-2</linkclipref>
              <mediatype>audio</mediatype>
              <trackindex>1</trackindex>
              <clipindex>1</clipindex>
              <groupindex>1</groupindex>
            </link>
          </clipitem>
          <clipitem id="clipitem-4">
            <name>superman-composition.mp4</name>
            <enabled>TRUE</enabled>
            <duration>66</duration>
            <start>24</start>
            <end>90</end>
            <in>600</in>
            <out>666</out>
            <file id="file-1"/>
            <link>
              <linkclipref>clipitem-3</linkclipref>
              <mediatype>video</mediatype>
              <trackindex>1</trackindex>
              <clipindex>2</clipindex>
            </link>
            <link>
              <linkclipref>clipitem-4</linkclipref>
              <mediatype>audio</mediatype>
              <trackindex>1</trackindex>
              <clipindex>2</clipindex>
              <groupindex>1</groupindex>
            </link>
          </clipitem>
          <clipitem id="clipitem-6">
            <name>superman-composition.mp4</name>
            <enabled>TRUE</enabled>
            <duration>54</duration>
            <start>90</start>
            <end>145</end>
            <in>666</in>
            <out>721</out>
            <file id="file-1"/>
            <link>
              <linkclipref>clipitem-5</linkclipref>
              <mediatype>video</mediatype>
              <trackindex>1</trackindex>
              <clipindex>3</clipindex>
            </link>
            <link>
              <linkclipref>clipitem-6</linkclipref>
              <mediatype>audio</mediatype>
              <trackindex>1</trackindex>
              <clipindex>3</clipindex>
              <groupindex>1</groupindex>
            </link>
          </clipitem>
          <clipitem id="clipitem-8">
            <name>superman-composition.mp4</name>
            <enabled>TRUE</enabled>
            <duration>68</duration>
            <start>145</start>
            <end>213</end>
            <in>2327</in>
            <out>2395</out>
            <file id="file-1"/>
            <link>
              <linkclipref>clipitem-7</linkclipref>
              <mediatype>video</mediatype>
              <trackindex>1</trackindex>
              <clipindex>4</clipindex>
            </link>
            <link>
              <linkclipref>clipitem-8</linkclipref>
              <mediatype>audio</mediatype>
              <trackindex>1</trackindex>
              <clipindex>4</clipindex>
              <groupindex>1</groupindex>
            </link>
          </clipitem>
          <clipitem id="clipitem-10">
            <name>superman-composition.mp4</name>
            <enabled>TRUE</enabled>
            <duration>143</duration>
            <start>213</start>
            <end>357</end>
            <in>2917</in>
            <out>3061</out>
            <file id="file-1"/>
            <link>
              <linkclipref>clipitem-9</linkclipref>
              <mediatype>video</mediatype>
              <trackindex>1</trackindex>
              <clipindex>5</clipindex>
            </link>
            <link>
              <linkclipref>clipitem-10</linkclipref>
              <mediatype>audio</mediatype>
              <trackindex>1</trackindex>
              <clipindex>5</clipindex>
              <groupindex>1</groupindex>
            </link>
          </clipitem>
          <clipitem id="clipitem-12">
            <name>superman-composition.mp4</name>
            <enabled>TRUE</enabled>
            <duration>5140</duration>
            <start>357</start>
            <end>5497</end>
            <in>3061</in>
            <out>8201</out>
            <file id="file-1"/>
            <link>
              <linkclipref>clipitem-11</linkclipref>
              <mediatype>video</mediatype>
              <trackindex>1</trackindex>
              <clipindex>6</clipindex>
            </link>
            <link>
              <linkclipref>clipitem-12</linkclipref>
              <mediatype>audio</mediatype>
              <trackindex>1</trackindex>
              <clipindex>6</clipindex>
              <groupindex>1</groupindex>
            </link>
          </clipitem>
        </track>
      </audio>
    </media>
    <marker>
      <name>Clark</name>
      <in>0</in>
      <out>-1</out>
    </marker>
    <marker>
      <name>End</name>
      <in>357</in>
      <out>-1</out>
    </marker>
  </sequence>
</xmeml>